<mxfile host="drawio-plugin" modified="2024-02-04T05:11:53.917Z" agent="5.0 (X11; Linux x86_64) AppleWebKit/537.36 (KHTML, like Gecko) Chrome/111.0.0.0 Safari/537.36" etag="ciCCvZtqKQHm5G3etn9h" version="20.5.3" type="embed"><diagram name="Page-1" id="qBD6op3qUp-WdUlCAM_y"><mxGraphModel dx="4480" dy="925" grid="1" gridSize="10" guides="1" tooltips="1" connect="1" arrows="1" fold="1" page="1" pageScale="1" pageWidth="1169" pageHeight="827" math="0" shadow="0"><root><mxCell id="0"/><mxCell id="1" parent="0"/><mxCell id="UCvxWR03_ax1GN8wgk-j-15" value="&lt;p style=&quot;margin:0px;margin-top:4px;text-align:center;&quot;&gt;&lt;b&gt;Manure&lt;/b&gt;&lt;/p&gt;&lt;p style=&quot;margin:0px;margin-top:4px;text-align:center;&quot;&gt;&lt;b&gt;RecyclingProduct&lt;/b&gt;&lt;/p&gt;&lt;hr size=&quot;1&quot;&gt;&lt;p style=&quot;margin:0px;margin-left:4px;&quot;&gt;&amp;nbsp;&lt;br&gt;&lt;/p&gt;&lt;hr size=&quot;1&quot;&gt;&lt;p style=&quot;margin:0px;margin-left:4px;&quot;&gt;&lt;br&gt;&lt;/p&gt;" style="verticalAlign=top;align=left;overflow=fill;fontSize=12;fontFamily=Helvetica;html=1;sketch=0;strokeWidth=2;fillColor=#e1d5e7;strokeColor=#9673a6;" parent="1" vertex="1"><mxGeometry x="-2907.65" y="196.25" width="139.3" height="85" as="geometry"/></mxCell><mxCell id="UCvxWR03_ax1GN8wgk-j-17" value="" style="endArrow=classic;html=1;sketch=0;fontFamily=Helvetica;curved=1;" parent="1" source="UCvxWR03_ax1GN8wgk-j-15" target="UCvxWR03_ax1GN8wgk-j-23" edge="1"><mxGeometry width="50" height="50" relative="1" as="geometry"><mxPoint x="-2302.3099999999995" y="304.70000000000005" as="sourcePoint"/><mxPoint x="-2481.8" y="635.2650000000001" as="targetPoint"/></mxGeometry></mxCell><mxCell id="UCvxWR03_ax1GN8wgk-j-23" value="&lt;div style=&quot;text-align: center;&quot;&gt;&lt;span style=&quot;background-color: initial; border-color: var(--border-color);&quot;&gt;&lt;span style=&quot;font-style: italic; white-space: pre;&quot;&gt; &lt;/span&gt;&lt;i&gt;&amp;nbsp; &amp;nbsp; &amp;nbsp; &amp;nbsp;&lt;/i&gt;&lt;b style=&quot;&quot;&gt;TypeOf&lt;/b&gt;&lt;/span&gt;&lt;/div&gt;&lt;span style=&quot;border-color: var(--border-color);&quot;&gt;&lt;div style=&quot;text-align: center;&quot;&gt;&lt;span style=&quot;background-color: initial; border-color: var(--border-color);&quot;&gt;&lt;span style=&quot;background-color: initial;&quot;&gt;&lt;b style=&quot;&quot;&gt;ManureRecyclingProduct&lt;/b&gt;&lt;/span&gt;&lt;/span&gt;&lt;/div&gt;&lt;/span&gt;&lt;hr size=&quot;1&quot;&gt;&lt;p style=&quot;margin:0px;margin-left:4px;&quot;&gt;&amp;nbsp;item: EnumeratedItem&lt;br&gt;&lt;/p&gt;&lt;hr size=&quot;1&quot;&gt;&lt;p style=&quot;margin:0px;margin-left:4px;&quot;&gt;&lt;br&gt;&lt;/p&gt;" style="verticalAlign=top;align=left;overflow=fill;fontSize=12;fontFamily=Helvetica;html=1;sketch=0;strokeWidth=2;" parent="1" vertex="1"><mxGeometry x="-2810" y="423.75" width="213" height="103.5" as="geometry"/></mxCell><mxCell id="UCvxWR03_ax1GN8wgk-j-24" value="" style="rounded=0;whiteSpace=wrap;html=1;fillColor=#dae8fc;strokeColor=#6c8ebf;fontFamily=Helvetica;" parent="1" vertex="1"><mxGeometry x="-3470" y="144.25" width="230" height="235.75" as="geometry"/></mxCell><mxCell id="UCvxWR03_ax1GN8wgk-j-25" value="eCH-0266 Animals" style="text;html=1;strokeColor=none;fillColor=none;align=left;verticalAlign=middle;whiteSpace=wrap;rounded=0;strokeWidth=2;fontFamily=Helvetica;" parent="1" vertex="1"><mxGeometry x="-3463" y="150" width="290" height="30" as="geometry"/></mxCell><mxCell id="UCvxWR03_ax1GN8wgk-j-26" value="&lt;p style=&quot;margin:0px;margin-top:4px;text-align:center;&quot;&gt;&lt;b&gt;ZoologicalAnimal&lt;/b&gt;&lt;/p&gt;&lt;hr size=&quot;1&quot;&gt;&lt;p style=&quot;margin:0px;margin-left:4px;&quot;&gt;&amp;nbsp;&amp;nbsp;&lt;br&gt;&lt;/p&gt;&lt;hr size=&quot;1&quot;&gt;&lt;p style=&quot;margin:0px;margin-left:4px;&quot;&gt;&lt;br&gt;&lt;/p&gt;" style="verticalAlign=top;align=left;overflow=fill;fontSize=12;fontFamily=Helvetica;html=1;sketch=0;strokeWidth=2;" parent="1" vertex="1"><mxGeometry x="-3446.25" y="187.75" width="170" height="65" as="geometry"/></mxCell><mxCell id="UCvxWR03_ax1GN8wgk-j-27" value="&lt;p style=&quot;margin:0px;margin-top:4px;text-align:center;&quot;&gt;&lt;b&gt;ManureDerivation&lt;/b&gt;&lt;/p&gt;&lt;hr size=&quot;1&quot;&gt;&lt;p style=&quot;margin:0px;margin-left:4px;&quot;&gt;&amp;nbsp; percentageAllocation: decimal&lt;br&gt;&lt;/p&gt;&lt;hr size=&quot;1&quot;&gt;&lt;p style=&quot;margin:0px;margin-left:4px;&quot;&gt;&lt;br&gt;&lt;/p&gt;" style="verticalAlign=top;align=left;overflow=fill;fontSize=12;fontFamily=Helvetica;html=1;sketch=0;strokeWidth=2;" parent="1" vertex="1"><mxGeometry x="-3200" y="148.5" width="210" height="70" as="geometry"/></mxCell><mxCell id="UCvxWR03_ax1GN8wgk-j-28" value="" style="endArrow=classic;html=1;sketch=0;fontFamily=Helvetica;curved=1;entryX=1;entryY=0.5;entryDx=0;entryDy=0;" parent="1" source="UCvxWR03_ax1GN8wgk-j-27" target="UCvxWR03_ax1GN8wgk-j-26" edge="1"><mxGeometry width="50" height="50" relative="1" as="geometry"><mxPoint x="-3174.41" y="547.8199999999999" as="sourcePoint"/><mxPoint x="-3350.5" y="553.0678247961216" as="targetPoint"/></mxGeometry></mxCell><mxCell id="UCvxWR03_ax1GN8wgk-j-29" value="&lt;p style=&quot;margin:0px;margin-top:4px;text-align:center;&quot;&gt;&lt;b&gt;StableSystem&lt;/b&gt;&lt;/p&gt;&lt;hr size=&quot;1&quot;&gt;&lt;p style=&quot;margin:0px;margin-left:4px;&quot;&gt;&amp;nbsp;item: EnumeratedItem&lt;br&gt;&lt;/p&gt;&lt;hr size=&quot;1&quot;&gt;&lt;p style=&quot;margin:0px;margin-left:4px;&quot;&gt;&lt;br&gt;&lt;/p&gt;" style="verticalAlign=top;align=left;overflow=fill;fontSize=12;fontFamily=Helvetica;html=1;sketch=0;strokeWidth=2;" parent="1" vertex="1"><mxGeometry x="-3374" y="421.32000000000005" width="180" height="100" as="geometry"/></mxCell><mxCell id="UCvxWR03_ax1GN8wgk-j-30" value="" style="endArrow=classic;html=1;sketch=0;fontFamily=Helvetica;curved=1;" parent="1" source="UCvxWR03_ax1GN8wgk-j-27" target="UCvxWR03_ax1GN8wgk-j-29" edge="1"><mxGeometry width="50" height="50" relative="1" as="geometry"><mxPoint x="-3153" y="260" as="sourcePoint"/><mxPoint x="-3350.5" y="553.0678247961216" as="targetPoint"/></mxGeometry></mxCell><mxCell id="UCvxWR03_ax1GN8wgk-j-31" value="&lt;p style=&quot;margin:0px;margin-top:4px;text-align:center;&quot;&gt;&lt;b style=&quot;background-color: initial;&quot;&gt;Utilisation&lt;/b&gt;&lt;br&gt;&lt;/p&gt;&lt;hr size=&quot;1&quot;&gt;&lt;p style=&quot;margin:0px;margin-left:4px;&quot;&gt;+ item: EnumeratedItem&lt;br&gt;&lt;/p&gt;&lt;hr size=&quot;1&quot;&gt;&lt;p style=&quot;margin:0px;margin-left:4px;&quot;&gt;&lt;br&gt;&lt;/p&gt;" style="verticalAlign=top;align=left;overflow=fill;fontSize=12;fontFamily=Helvetica;html=1;sketch=0;strokeWidth=2;" parent="1" vertex="1"><mxGeometry x="-3445.67" y="260" width="170" height="94.75" as="geometry"/></mxCell><mxCell id="UCvxWR03_ax1GN8wgk-j-32" value="" style="endArrow=classic;html=1;sketch=0;fontFamily=Helvetica;curved=1;entryX=1.001;entryY=0.375;entryDx=0;entryDy=0;entryPerimeter=0;" parent="1" source="UCvxWR03_ax1GN8wgk-j-27" target="UCvxWR03_ax1GN8wgk-j-31" edge="1"><mxGeometry width="50" height="50" relative="1" as="geometry"><mxPoint x="-3126.35" y="575.75" as="sourcePoint"/><mxPoint x="-3268.14846743295" y="786.75" as="targetPoint"/></mxGeometry></mxCell><mxCell id="UCvxWR03_ax1GN8wgk-j-33" value="0..1" style="text;html=1;strokeColor=none;fillColor=none;align=center;verticalAlign=middle;whiteSpace=wrap;rounded=0;fontFamily=Helvetica;" parent="1" vertex="1"><mxGeometry x="-3287" y="292.38" width="60" height="30" as="geometry"/></mxCell><mxCell id="UCvxWR03_ax1GN8wgk-j-37" value="&lt;p style=&quot;margin:0px;margin-top:4px;text-align:center;&quot;&gt;&lt;b&gt;ManureRecycling&lt;/b&gt;&lt;/p&gt;&lt;p style=&quot;margin:0px;margin-top:4px;text-align:center;&quot;&gt;&lt;b style=&quot;background-color: initial;&quot;&gt;ProductCategory&lt;/b&gt;&lt;/p&gt;&lt;hr size=&quot;1&quot;&gt;&lt;p style=&quot;margin:0px;margin-left:4px;&quot;&gt;&amp;nbsp;item: EnumeratedItem&lt;br&gt;&lt;/p&gt;&lt;hr size=&quot;1&quot;&gt;&lt;p style=&quot;margin:0px;margin-left:4px;&quot;&gt;&lt;br&gt;&lt;/p&gt;" style="verticalAlign=top;align=left;overflow=fill;fontSize=12;fontFamily=Helvetica;html=1;sketch=0;strokeWidth=2;" parent="1" vertex="1"><mxGeometry x="-3133" y="421.31999999999994" width="160" height="108.37" as="geometry"/></mxCell><mxCell id="UCvxWR03_ax1GN8wgk-j-38" value="" style="endArrow=classic;html=1;sketch=0;fontFamily=Helvetica;curved=1;" parent="1" source="UCvxWR03_ax1GN8wgk-j-15" target="UCvxWR03_ax1GN8wgk-j-37" edge="1"><mxGeometry width="50" height="50" relative="1" as="geometry"><mxPoint x="-2559.295814977974" y="265.25" as="sourcePoint"/><mxPoint x="-2529.6552863436123" y="354.25" as="targetPoint"/></mxGeometry></mxCell><mxCell id="UCvxWR03_ax1GN8wgk-j-39" value="&lt;p style=&quot;margin:0px;margin-top:4px;text-align:center;&quot;&gt;&lt;b&gt;NprCode&lt;/b&gt;&lt;/p&gt;&lt;hr size=&quot;1&quot;&gt;&lt;p style=&quot;margin:0px;margin-left:4px;&quot;&gt;&amp;nbsp;item : EnumeratedItem&lt;br&gt;&lt;/p&gt;&lt;p style=&quot;margin:0px;margin-left:4px;&quot;&gt;&amp;nbsp;&lt;/p&gt;&lt;hr size=&quot;1&quot;&gt;&lt;p style=&quot;margin:0px;margin-left:4px;&quot;&gt;&lt;br&gt;&lt;/p&gt;" style="verticalAlign=top;align=left;overflow=fill;fontSize=12;fontFamily=Helvetica;html=1;sketch=0;strokeWidth=2;" parent="1" vertex="1"><mxGeometry x="-3153" y="281.25" width="153" height="88.75" as="geometry"/></mxCell><mxCell id="UCvxWR03_ax1GN8wgk-j-40" value="" style="endArrow=classic;html=1;sketch=0;fontFamily=Helvetica;curved=1;exitX=0;exitY=1;exitDx=0;exitDy=0;" parent="1" source="UCvxWR03_ax1GN8wgk-j-15" target="UCvxWR03_ax1GN8wgk-j-39" edge="1"><mxGeometry width="50" height="50" relative="1" as="geometry"><mxPoint x="-2780.7662000000005" y="265.33500000000004" as="sourcePoint"/><mxPoint x="-2901.75" y="274.0607617979797" as="targetPoint"/></mxGeometry></mxCell><mxCell id="UCvxWR03_ax1GN8wgk-j-42" value="&lt;p style=&quot;margin:0px;margin-top:4px;text-align:center;&quot;&gt;&lt;b style=&quot;background-color: initial;&quot;&gt;MatterState&lt;/b&gt;&lt;br&gt;&lt;/p&gt;&lt;hr size=&quot;1&quot;&gt;&lt;p style=&quot;margin:0px;margin-left:4px;&quot;&gt;&amp;nbsp;item: EnumeratedItem&lt;br&gt;&lt;/p&gt;&lt;hr size=&quot;1&quot;&gt;&lt;p style=&quot;margin:0px;margin-left:4px;&quot;&gt;&lt;br&gt;&lt;/p&gt;" style="verticalAlign=top;align=left;overflow=fill;fontSize=12;fontFamily=Helvetica;html=1;sketch=0;strokeWidth=2;" parent="1" vertex="1"><mxGeometry x="-3103" y="40" width="160" height="84.25" as="geometry"/></mxCell><mxCell id="UCvxWR03_ax1GN8wgk-j-43" value="" style="endArrow=classic;html=1;sketch=0;fontFamily=Helvetica;curved=1;" parent="1" source="UCvxWR03_ax1GN8wgk-j-15" target="UCvxWR03_ax1GN8wgk-j-42" edge="1"><mxGeometry width="50" height="50" relative="1" as="geometry"><mxPoint x="-2927.8842" y="279.0250000000001" as="sourcePoint"/><mxPoint x="-2762.869599203004" y="555.25" as="targetPoint"/></mxGeometry></mxCell><mxCell id="UCvxWR03_ax1GN8wgk-j-44" value="0..*" style="text;html=1;strokeColor=none;fillColor=none;align=center;verticalAlign=middle;whiteSpace=wrap;rounded=0;fontFamily=Helvetica;" parent="1" vertex="1"><mxGeometry x="-3314" y="393.75" width="60" height="30" as="geometry"/></mxCell><mxCell id="UCvxWR03_ax1GN8wgk-j-55" value="" style="endArrow=classic;html=1;sketch=0;fontFamily=Helvetica;curved=1;exitX=0.009;exitY=0.436;exitDx=0;exitDy=0;exitPerimeter=0;" parent="1" source="UCvxWR03_ax1GN8wgk-j-15" target="UCvxWR03_ax1GN8wgk-j-27" edge="1"><mxGeometry width="50" height="50" relative="1" as="geometry"><mxPoint x="-3090" y="245.25" as="sourcePoint"/><mxPoint x="-3058" y="293.25" as="targetPoint"/></mxGeometry></mxCell><mxCell id="UCvxWR03_ax1GN8wgk-j-56" value="0..*" style="text;html=1;strokeColor=none;fillColor=none;align=center;verticalAlign=middle;whiteSpace=wrap;rounded=0;fontFamily=Helvetica;" parent="1" vertex="1"><mxGeometry x="-3000" y="180" width="60" height="30" as="geometry"/></mxCell><mxCell id="UCvxWR03_ax1GN8wgk-j-57" value="0..*" style="text;html=1;strokeColor=none;fillColor=none;align=center;verticalAlign=middle;whiteSpace=wrap;rounded=0;fontFamily=Helvetica;" parent="1" vertex="1"><mxGeometry x="-3083" y="254.25" width="60" height="30" as="geometry"/></mxCell><mxCell id="2" value="" style="rounded=0;whiteSpace=wrap;html=1;fontFamily=Helvetica;" parent="1" vertex="1"><mxGeometry x="-3470" y="40" width="204.65" height="90" as="geometry"/></mxCell><mxCell id="3" value="&lt;h1&gt;&lt;span style=&quot;background-color: initial;&quot;&gt;eCH-0263&lt;/span&gt;&lt;/h1&gt;&lt;div&gt;&lt;br&gt;&lt;/div&gt;" style="text;html=1;strokeColor=none;fillColor=none;spacing=5;spacingTop=-20;whiteSpace=wrap;overflow=hidden;rounded=0;strokeWidth=2;fontFamily=Helvetica;" parent="1" vertex="1"><mxGeometry x="-3458.52" y="54.25" width="195.7" height="40" as="geometry"/></mxCell><mxCell id="4" value="Manure / Recycling" style="text;html=1;strokeColor=none;fillColor=none;align=left;verticalAlign=middle;whiteSpace=wrap;rounded=0;strokeWidth=2;fontFamily=Helvetica;" parent="1" vertex="1"><mxGeometry x="-3453.25" y="94.25" width="166.25" height="30" as="geometry"/></mxCell><mxCell id="6" value="&lt;p style=&quot;margin:0px;margin-top:4px;text-align:center;&quot;&gt;&lt;b&gt;&lt;i&gt;AbstractProduct&lt;/i&gt;&lt;/b&gt;&lt;/p&gt;&lt;hr size=&quot;1&quot;&gt;&lt;p style=&quot;margin:0px;margin-left:4px;&quot;&gt;&lt;br&gt;&lt;/p&gt;&lt;hr size=&quot;1&quot;&gt;&lt;p style=&quot;margin:0px;margin-left:4px;&quot;&gt;&lt;br&gt;&lt;/p&gt;" style="verticalAlign=top;align=left;overflow=fill;fontSize=12;fontFamily=Helvetica;html=1;sketch=0;strokeWidth=2;" parent="1" vertex="1"><mxGeometry x="-2923" y="40" width="153" height="80" as="geometry"/></mxCell><mxCell id="7" value="" style="endArrow=block;html=1;sketch=0;fontFamily=Helvetica;curved=1;endFill=0;exitX=0.46;exitY=0;exitDx=0;exitDy=0;exitPerimeter=0;" parent="1" source="UCvxWR03_ax1GN8wgk-j-15" target="6" edge="1"><mxGeometry width="50" height="50" relative="1" as="geometry"><mxPoint x="-2730.65" y="161.11842105263167" as="sourcePoint"/><mxPoint x="-3385.5299999999997" y="602.3249999999998" as="targetPoint"/></mxGeometry></mxCell><mxCell id="8" value="" style="endArrow=classic;html=1;sketch=0;fontFamily=Helvetica;curved=1;" parent="1" source="UCvxWR03_ax1GN8wgk-j-27" target="UCvxWR03_ax1GN8wgk-j-39" edge="1"><mxGeometry width="50" height="50" relative="1" as="geometry"><mxPoint x="-2897.65" y="291.25" as="sourcePoint"/><mxPoint x="-2960" y="312.94051526091243" as="targetPoint"/></mxGeometry></mxCell><mxCell id="9" value="&lt;p style=&quot;margin:0px;margin-top:4px;text-align:center;&quot;&gt;&lt;b&gt;Ingredient&lt;/b&gt;&lt;/p&gt;&lt;hr size=&quot;1&quot;&gt;&lt;p style=&quot;margin:0px;margin-left:4px;&quot;&gt;&amp;nbsp;&lt;/p&gt;&lt;hr size=&quot;1&quot;&gt;&lt;p style=&quot;margin:0px;margin-left:4px;&quot;&gt;&lt;br&gt;&lt;/p&gt;" style="verticalAlign=top;align=left;overflow=fill;fontSize=12;fontFamily=Helvetica;html=1;sketch=0;strokeWidth=2;" parent="1" vertex="1"><mxGeometry x="-2694" y="40" width="180" height="80" as="geometry"/></mxCell><mxCell id="10" value="&lt;p style=&quot;margin:0px;margin-top:4px;text-align:center;&quot;&gt;&lt;b&gt;MetaIngredient&lt;/b&gt;&lt;/p&gt;&lt;hr size=&quot;1&quot;&gt;&lt;p style=&quot;margin:0px;margin-left:4px;&quot;&gt;&amp;nbsp;&amp;nbsp;&lt;/p&gt;&lt;hr size=&quot;1&quot;&gt;&lt;p style=&quot;margin:0px;margin-left:4px;&quot;&gt;&lt;br&gt;&lt;/p&gt;" style="verticalAlign=top;align=left;overflow=fill;fontSize=12;fontFamily=Helvetica;html=1;sketch=0;strokeWidth=2;" parent="1" vertex="1"><mxGeometry x="-2694" y="199" width="180" height="82.25" as="geometry"/></mxCell><mxCell id="11" value="" style="endArrow=block;html=1;sketch=0;fontFamily=Helvetica;curved=1;endFill=0;exitX=0.5;exitY=0;exitDx=0;exitDy=0;entryX=0.5;entryY=1;entryDx=0;entryDy=0;" parent="1" source="10" target="9" edge="1"><mxGeometry width="50" height="50" relative="1" as="geometry"><mxPoint x="-2833.572" y="206.25" as="sourcePoint"/><mxPoint x="-2835.492516129032" y="129.9999999999999" as="targetPoint"/></mxGeometry></mxCell><mxCell id="12" value="" style="endArrow=classic;html=1;sketch=0;fontFamily=Helvetica;curved=1;entryX=0;entryY=0.5;entryDx=0;entryDy=0;" parent="1" source="6" target="9" edge="1"><mxGeometry width="50" height="50" relative="1" as="geometry"><mxPoint x="-2878.199521149242" y="206.25" as="sourcePoint"/><mxPoint x="-2963.243415802075" y="134.25" as="targetPoint"/></mxGeometry></mxCell><mxCell id="13" value="" style="endArrow=classic;html=1;sketch=0;fontFamily=Helvetica;curved=1;entryX=0;entryY=0.5;entryDx=0;entryDy=0;exitX=1;exitY=0.5;exitDx=0;exitDy=0;" parent="1" source="UCvxWR03_ax1GN8wgk-j-15" target="10" edge="1"><mxGeometry width="50" height="50" relative="1" as="geometry"><mxPoint x="-2760" y="90" as="sourcePoint"/><mxPoint x="-2684" y="90" as="targetPoint"/></mxGeometry></mxCell><mxCell id="14" value="Choice" style="text;html=1;strokeColor=none;fillColor=none;align=center;verticalAlign=middle;whiteSpace=wrap;rounded=0;" parent="1" vertex="1"><mxGeometry x="-2740" y="144.25" width="60" height="30" as="geometry"/></mxCell><mxCell id="15" value="" style="endArrow=none;dashed=1;html=1;dashPattern=1 3;strokeWidth=2;rounded=0;exitX=0;exitY=0.25;exitDx=0;exitDy=0;" parent="1" source="17" edge="1"><mxGeometry width="50" height="50" relative="1" as="geometry"><mxPoint x="-2740" y="240" as="sourcePoint"/><mxPoint x="-2740" y="90" as="targetPoint"/></mxGeometry></mxCell><mxCell id="16" value="1..*" style="text;html=1;strokeColor=none;fillColor=none;align=center;verticalAlign=middle;whiteSpace=wrap;rounded=0;fontFamily=Helvetica;" parent="1" vertex="1"><mxGeometry x="-2740" y="54.25" width="60" height="30" as="geometry"/></mxCell><mxCell id="17" value="1..*" style="text;html=1;strokeColor=none;fillColor=none;align=center;verticalAlign=middle;whiteSpace=wrap;rounded=0;fontFamily=Helvetica;" parent="1" vertex="1"><mxGeometry x="-2740" y="212.5" width="60" height="30" as="geometry"/></mxCell><mxCell id="18" style="edgeStyle=orthogonalEdgeStyle;rounded=0;orthogonalLoop=1;jettySize=auto;html=1;entryX=1;entryY=0.75;entryDx=0;entryDy=0;" parent="1" source="UCvxWR03_ax1GN8wgk-j-15" target="UCvxWR03_ax1GN8wgk-j-15" edge="1"><mxGeometry relative="1" as="geometry"><Array as="points"><mxPoint x="-2790" y="301"/><mxPoint x="-2740" y="301"/><mxPoint x="-2740" y="260"/></Array></mxGeometry></mxCell><mxCell id="19" value="referencing&lt;br&gt;standard" style="text;html=1;strokeColor=none;fillColor=none;align=left;verticalAlign=middle;whiteSpace=wrap;rounded=0;" parent="1" vertex="1"><mxGeometry x="-2750" y="310" width="60" height="30" as="geometry"/></mxCell><mxCell id="20" value="&lt;p style=&quot;margin:0px;margin-top:4px;text-align:center;&quot;&gt;&lt;b&gt;ProductType&lt;/b&gt;&lt;/p&gt;&lt;hr size=&quot;1&quot;&gt;&lt;p style=&quot;margin:0px;margin-left:4px;&quot;&gt;&amp;nbsp;item: Enumeration&lt;br&gt;&lt;/p&gt;&lt;hr size=&quot;1&quot;&gt;&lt;p style=&quot;margin:0px;margin-left:4px;&quot;&gt;&lt;br&gt;&lt;/p&gt;" style="verticalAlign=top;align=left;overflow=fill;fontSize=12;fontFamily=Helvetica;html=1;sketch=0;strokeWidth=2;" vertex="1" parent="1"><mxGeometry x="-2943" y="427.38000000000005" width="113" height="96.25" as="geometry"/></mxCell><mxCell id="21" value="" style="endArrow=classic;html=1;sketch=0;fontFamily=Helvetica;curved=1;entryX=0.319;entryY=-0.011;entryDx=0;entryDy=0;entryPerimeter=0;" edge="1" parent="1" target="20" source="UCvxWR03_ax1GN8wgk-j-15"><mxGeometry width="50" height="50" relative="1" as="geometry"><mxPoint x="-2177.44" y="346.8432499999999" as="sourcePoint"/><mxPoint x="-2260.0099999999998" y="450" as="targetPoint"/></mxGeometry></mxCell></root></mxGraphModel></diagram></mxfile>